<?xml version="1.0" standalone="no"?>
<!DOCTYPE svg PUBLIC "-//W3C//DTD SVG 20010904//EN"
 "http://www.w3.org/TR/2001/REC-SVG-20010904/DTD/svg10.dtd">
<svg version="1.0" xmlns="http://www.w3.org/2000/svg"
 width="1280.000000pt" height="640.000000pt" viewBox="0 0 1280.000000 640.000000"
 preserveAspectRatio="xMidYMid meet">
<g transform="translate(0.000000,640.000000) scale(0.100000,-0.100000)"
fill="#000000" stroke="none">
<path d="M4196 3463 c-4 -5 -222 -8 -484 -9 -412 0 -487 -3 -552 -17 -101 -23
-209 -60 -365 -123 -142 -57 -240 -81 -261 -63 -19 16 3 58 35 65 65 15 93 61
51 84 -34 18 -94 -15 -164 -91 -51 -55 -70 -69 -92 -69 -36 0 -106 32 -146 65
-40 33 -61 32 -95 -9 -15 -18 -38 -38 -50 -45 -17 -8 -260 -11 -940 -9 -823 2
-927 1 -1006 -14 -98 -19 -130 -35 -101 -51 12 -7 283 -10 743 -9 400 1 854
-1 1011 -4 l285 -6 37 -39 c21 -22 45 -39 54 -39 9 0 33 13 53 29 55 43 98 62
156 68 l52 6 34 -47 c22 -29 53 -55 87 -72 49 -25 59 -26 155 -21 119 6 229
35 387 104 226 97 222 96 288 96 79 -1 93 -12 67 -56 -25 -42 -27 -133 -2
-170 31 -47 62 -62 106 -49 85 26 111 101 67 197 -14 32 -26 63 -26 70 0 22
80 84 137 105 74 27 161 26 249 -4 170 -57 176 -80 34 -121 -85 -24 -130 -72
-130 -138 0 -31 7 -46 33 -72 39 -39 72 -50 121 -41 39 7 86 41 86 61 0 23
-20 28 -65 15 -24 -7 -56 -10 -69 -6 -53 13 -38 92 25 137 68 48 147 36 433
-66 177 -62 413 -128 540 -150 283 -48 484 19 766 255 177 148 279 200 395
200 64 0 154 -21 193 -46 26 -17 29 -52 5 -60 -73 -23 -99 -42 -148 -109 -86
-114 -127 -144 -182 -130 -24 6 -25 8 -19 56 10 76 -12 109 -76 109 -79 0
-118 -113 -65 -190 39 -59 70 -74 153 -78 77 -4 148 14 232 58 32 18 33 17
110 -16 42 -19 87 -34 100 -34 12 0 48 14 80 31 64 34 72 34 181 -6 151 -55
281 -29 329 65 26 52 28 80 7 125 -28 57 -90 71 -132 29 -23 -24 -25 -30 -19
-85 l7 -59 -27 0 c-43 0 -111 38 -144 81 -17 21 -74 70 -125 109 -83 62 -93
73 -86 93 12 34 86 67 148 67 116 0 219 -52 463 -234 176 -131 226 -160 364
-210 92 -34 106 -36 215 -36 257 1 430 40 886 205 163 58 220 63 265 20 36
-34 40 -80 11 -116 -16 -20 -27 -23 -69 -21 -54 2 -72 -9 -52 -33 8 -10 32
-15 69 -15 74 0 116 25 132 79 10 34 9 45 -10 83 -25 52 -73 83 -143 93 -62 9
-62 27 -1 65 87 56 149 74 253 74 103 1 136 -8 207 -56 53 -36 57 -67 13 -98
-66 -47 -82 -146 -32 -200 38 -43 86 -49 132 -18 53 36 62 61 55 151 -5 66 -3
78 11 84 30 11 117 -17 239 -77 145 -71 220 -96 330 -111 147 -19 273 14 364
96 52 47 84 46 170 -5 37 -22 80 -40 95 -40 15 0 53 16 84 35 34 20 82 39 117
46 43 8 321 10 1008 6 l948 -5 11 24 c6 13 8 27 4 32 -4 4 -425 7 -934 7 -976
0 -1055 3 -1166 46 -69 26 -95 24 -136 -9 -51 -42 -74 -52 -119 -52 -39 0 -43
3 -76 55 -42 65 -74 84 -160 92 -50 5 -70 2 -90 -11 -43 -28 -30 -36 48 -30
62 5 77 2 105 -15 35 -23 55 -61 45 -87 -5 -14 -19 -16 -92 -12 -71 4 -115 14
-251 60 -484 164 -1096 222 -1505 142 -126 -25 -213 -53 -308 -100 -48 -25
-110 -53 -137 -64 -59 -23 -68 -16 -77 61 -9 76 -51 120 -119 126 -62 5 -110
-19 -136 -69 -38 -72 17 -96 64 -28 35 50 66 53 102 9 30 -36 35 -102 12 -148
-17 -32 -121 -103 -186 -126 -105 -38 -240 -15 -303 52 -29 31 -49 84 -38 100
3 5 39 9 79 8 62 0 76 3 88 19 35 49 5 129 -60 160 -106 50 -204 -21 -222
-162 -4 -30 -13 -56 -20 -59 -16 -6 -54 17 -159 96 -146 111 -273 165 -391
165 -63 0 -79 -4 -157 -43 l-87 -43 -42 22 c-24 12 -61 31 -83 42 -55 28 -146
34 -222 14 -107 -27 -213 -89 -366 -213 -43 -35 -82 -63 -87 -63 -11 0 -16 21
-24 94 -12 98 -75 166 -155 166 -50 0 -91 -19 -120 -56 -30 -38 -27 -77 11
-120 31 -35 34 -36 84 -30 61 7 71 -2 50 -42 -42 -82 -139 -121 -247 -102
-165 30 -279 113 -279 204 0 61 38 96 106 96 31 0 37 -4 54 -42 11 -24 20 -53
20 -65 0 -31 28 -30 39 1 10 25 2 77 -18 113 -20 39 -52 53 -119 53 -79 0
-104 -22 -129 -110 -9 -34 -23 -64 -31 -67 -7 -3 -77 26 -155 66 -98 49 -172
78 -237 95 -101 25 -251 41 -264 29z m-561 -87 c0 -25 -8 -35 -55 -63 -60 -36
-96 -40 -194 -22 -91 17 -219 -17 -485 -126 -94 -40 -127 -48 -195 -52 -88 -5
-152 10 -170 41 -16 25 12 42 103 62 42 9 155 43 251 74 306 101 397 119 605
116 l140 -1 0 -29z m812 0 c129 -36 190 -62 405 -176 267 -142 272 -144 395
-142 56 1 105 -3 108 -8 11 -17 -40 -39 -123 -50 -174 -26 -385 30 -767 203
-195 88 -321 137 -387 152 -27 5 -38 31 -20 49 4 5 72 6 152 3 112 -4 166 -11
237 -31z m4308 24 c11 -17 -5 -49 -28 -56 -12 -3 -139 -58 -282 -121 -337
-150 -380 -166 -505 -199 -125 -32 -221 -37 -246 -12 -23 22 -14 32 56 58 33
12 86 38 118 57 136 83 385 198 526 243 105 34 346 54 361 30z m702 -11 c114
-15 255 -52 453 -119 96 -32 211 -64 255 -70 113 -17 147 -51 81 -83 -50 -23
-125 -31 -185 -18 -29 6 -129 40 -224 75 -202 75 -272 95 -385 106 -53 6 -94
16 -116 29 -33 21 -61 65 -51 82 8 12 76 11 172 -2z m1205 -156 c24 -22 23
-39 -4 -57 -26 -17 -77 -10 -85 10 -8 21 25 64 49 64 12 0 30 -7 40 -17z
m-8438 -6 c25 -18 16 -50 -17 -61 -32 -12 -60 1 -65 28 -8 39 45 60 82 33z
m7127 -54 c3 -17 1 -45 -5 -64 -10 -30 -15 -34 -46 -34 -34 0 -35 1 -38 43 -3
46 8 69 43 82 30 12 39 7 46 -27z m-5807 -15 c9 -12 16 -39 16 -60 0 -29 -5
-38 -21 -43 -13 -4 -27 -2 -35 7 -17 17 -29 80 -21 103 9 22 44 18 61 -7z"/>
</g>
</svg>
